HIERARCHY
ROOT Hips
{
	OFFSET 0.00 0.00 0.00
	CHANNELS 6 Xposition Yposition Zposition Xrotation Yrotation Zrotation
	JOINT Spine
	{
		OFFSET 0.00000 5.19526 0.00000
		CHANNELS 3 Xrotation Yrotation Zrotation
		JOINT Head
		{
			OFFSET 0.00000 15.65388 0.00000
			CHANNELS 3 Xrotation Yrotation Zrotation
			End Site
			{
				OFFSET 0.00000 4.52755 0.00000
			}
		}
		JOINT LeftShoulder
		{
			OFFSET 0.00000 10.32977 0.00000
			CHANNELS 3 Xrotation Yrotation Zrotation
			JOINT LeftArm
			{
				OFFSET 6.99601 0.00000 0.00000
				CHANNELS 3 Xrotation Yrotation Zrotation
				JOINT LeftForeArm
				{
					OFFSET 10.20930 0.00000 0.00000
					CHANNELS 3 Yrotation Zrotation Xrotation
					JOINT LeftHand
					{
						OFFSET 8.56316 0.00000 0.00000
						CHANNELS 3 Xrotation Yrotation Zrotation
						JOINT LeftHandThumb1
						{
							OFFSET 0.00000 0.00000 0.00000
							CHANNELS 3 Xrotation Zrotation Yrotation
							End Site
							{
								OFFSET 0.00000 0.00000 3.93700
							}
						}
						End Site
						{
							OFFSET 3.93700 0.00000 0.00000
						}
					}
				}
			}
		}
		JOINT RightShoulder
		{
			OFFSET 0.00000 10.32977 0.00000
			CHANNELS 3 Xrotation Yrotation Zrotation
			JOINT RightArm
			{
				OFFSET -6.99601 0.00000 0.00000
				CHANNELS 3 Xrotation Yrotation Zrotation
				JOINT RightForeArm
				{
					OFFSET -10.20930 0.00000 0.00000
					CHANNELS 3 Yrotation Zrotation Xrotation
					JOINT RightHand
					{
						OFFSET -8.56316 0.00000 0.00000
						CHANNELS 3 Xrotation Yrotation Zrotation
						JOINT RightHandThumb1
						{
							OFFSET 0.00000 0.00000 0.00000
							CHANNELS 3 Xrotation Zrotation Yrotation
							End Site
							{
								OFFSET 0.00000 0.00000 3.93700
							}
						}
						End Site
						{
							OFFSET -3.93700 0.00000 0.00000
						}
					}
				}
			}
		}
	}
	JOINT LeftUpLeg
	{
		OFFSET 3.35136 0.00000 0.00000
		CHANNELS 3 Xrotation Yrotation Zrotation
		JOINT LeftLeg
		{
			OFFSET 0.00000 -16.34683 0.00000
			CHANNELS 3 Xrotation Yrotation Zrotation
			JOINT LeftFoot
			{
				OFFSET 0.00000 -13.95979 0.00000
				CHANNELS 3 Xrotation Yrotation Zrotation
				JOINT LeftToeBase
				{
					OFFSET 0.00000 -1.33694 4.98954
					CHANNELS 3 Xrotation Yrotation Zrotation
					End Site
					{
						OFFSET 0.00000 0.00000 2.95275
					}
				}
			}
		}
	}
	JOINT RightUpLeg
	{
		OFFSET -3.35136 0.00000 0.00000
		CHANNELS 3 Xrotation Yrotation Zrotation
		JOINT RightLeg
		{
			OFFSET 0.00000 -16.34683 0.00000
			CHANNELS 3 Xrotation Yrotation Zrotation
			JOINT RightFoot
			{
				OFFSET 0.00000 -13.95979 0.00000
				CHANNELS 3 Xrotation Yrotation Zrotation
				JOINT RightToeBase
				{
					OFFSET 0.00000 -1.33694 4.98954
					CHANNELS 3 Xrotation Yrotation Zrotation
					End Site
					{
						OFFSET 0.00000 0.00000 2.95275
					}
				}
			}
		}
	}
}
MOTION
Frames: 16
Frame Time: 0.008333
 -3.9005 32.6105 -6.2462 16.5561 -62.0055 -8.4056 6.8521 3.9657 7.5086 -5.8256 -15.2280 20.1811 -3.8427 6.6576 26.8083 -57.4259 -6.0745 -89.0342 -125.6012 -0.0000 -22.6124 -1.9204 21.1845 5.3010 33.1476 -0.0000 26.2537 -18.5588 5.3065 -7.7700 -43.3140 51.2230 120.5975 67.7690 0.0000 15.1899 -5.4887 -11.4270 -25.8740 32.8623 0.0000 -24.3270 -21.5868 12.5057 14.2367 21.5955 -0.0000 0.0000 -28.6065 36.8987 8.4130 9.6318 0.0000 0.0000 -75.6324 -18.0901 -37.4582 63.2932 -0.0000 0.0000 1.8152 -23.8807 17.6751 14.3778 0.0000 0.0000
 -3.8987 32.6227 -6.2682 16.7685 -61.8662 -8.3164 6.8579 3.8902 7.5820 -6.0697 -15.1635 20.2784 -3.9457 6.5591 26.9876 -57.4868 -6.1967 -89.2193 -125.1860 -0.0000 -22.7054 -1.9508 20.9759 5.4353 33.1476 -0.0000 26.2537 -18.5974 5.2631 -7.8013 -43.1329 50.9724 120.4204 67.6975 0.0000 15.2874 -5.6531 -11.5530 -26.3013 32.8623 0.0000 -24.3270 -21.7219 12.3237 14.2914 21.5775 -0.0000 0.0000 -28.5810 36.8483 8.6609 9.2935 -0.0000 0.0000 -75.7252 -18.4419 -37.3211 63.9408 -0.0000 0.0000 2.4245 -23.5707 17.9046 14.6783 -0.0000 -0.0000
 -3.8935 32.6338 -6.2863 16.9398 -61.6784 -8.2339 6.9071 3.7690 7.6476 -6.3300 -15.1116 20.3506 -4.0707 6.4409 27.1335 -57.5692 -6.4019 -89.3712 -124.7515 -0.0000 -22.5405 -2.0087 20.7856 5.6444 33.1476 -0.0000 26.2537 -18.6254 5.2475 -7.8442 -42.9146 50.7054 120.1919 67.6400 0.0000 15.2753 -5.6454 -11.5543 -26.2674 32.8623 0.0000 -24.3270 -21.8061 12.1755 14.2905 21.4827 -0.0000 -0.0000 -28.5051 36.7078 8.9566 8.8718 0.0000 -0.0000 -75.8274 -18.8441 -37.2574 64.5301 0.0000 0.0000 3.0026 -23.3425 18.2320 15.0033 -0.0000 0.0000
 -3.8868 32.6432 -6.3035 17.1361 -61.5010 -8.0938 6.9416 3.6527 7.6757 -6.5726 -15.0568 20.4255 -4.1942 6.2834 27.2855 -57.6308 -6.5375 -89.4926 -124.3410 -0.0000 -22.7089 -2.0344 20.6706 5.7462 33.1476 -0.0000 26.2537 -18.6806 5.2235 -7.8658 -42.7066 50.4320 119.9871 67.5448 0.0000 15.3317 -5.8178 -11.6546 -26.7655 32.8623 0.0000 -24.3270 -21.8907 12.1094 14.2646 21.3544 -0.0000 -0.0000 -28.4502 36.4794 9.2115 8.4973 -0.0000 -0.0000 -75.9234 -19.2142 -37.1946 65.0866 -0.0000 0.0000 3.5329 -23.1165 18.8097 15.5687 0.0000 -0.0000
 -3.8794 32.6506 -6.3181 17.3467 -61.3149 -7.9150 6.9549 3.5189 7.6858 -6.7521 -14.9921 20.4997 -4.2535 6.1792 27.4176 -57.7823 -6.7439 -89.6163 -123.8748 -0.0000 -22.7680 -2.1022 20.5173 5.9787 33.1476 -0.0000 26.2537 -18.6783 5.2085 -7.8782 -42.5099 50.1556 119.7384 67.4487 0.0000 15.2728 -5.7910 -11.5438 -26.8756 32.8623 0.0000 -24.3270 -21.9636 12.0517 14.2080 21.2002 -0.0000 -0.0000 -28.3581 36.2687 9.5183 8.0568 -0.0000 0.0000 -75.9904 -19.5700 -37.1413 65.5770 -0.0000 -0.0000 4.0266 -22.7830 19.3491 15.5820 0.0000 0.0000
 -3.8696 32.6551 -6.3298 17.5367 -61.1134 -7.7055 6.9907 3.3597 7.6670 -6.9483 -14.9170 20.5067 -4.3400 6.0987 27.5382 -57.9447 -6.8859 -89.8283 -123.4033 -0.0000 -22.7404 -2.1639 20.3506 6.2008 33.1476 -0.0000 26.2537 -18.7514 5.2320 -7.9001 -42.2258 49.8712 119.4698 67.3919 0.0000 15.2857 -5.9239 -11.6678 -27.1610 32.8623 0.0000 -24.3270 -22.0008 11.9990 14.0961 21.0309 0.0000 0.0000 -28.2632 36.0804 9.6713 7.7669 -0.0000 0.0000 -76.0344 -19.8757 -37.1165 66.0473 0.0000 -0.0000 4.5079 -22.3159 19.9135 15.3452 0.0000 -0.0000
 -3.8577 32.6598 -6.3417 17.7957 -60.8917 -7.4115 6.9891 3.1713 7.6285 -7.0910 -14.8255 20.5473 -4.1491 6.2727 27.5155 -58.5356 -7.1175 -90.0433 -122.8381 -0.0000 -22.6333 -2.2264 20.2646 6.4044 33.1476 -0.0000 26.2537 -18.7732 5.2577 -7.9149 -41.9718 49.5785 119.1921 67.3184 0.0000 15.3163 -5.9889 -11.6555 -27.4420 32.8623 0.0000 -24.3270 -22.0625 11.9877 13.9649 20.8188 0.0000 0.0000 -28.1214 35.8413 9.7382 7.5467 -0.0000 -0.0000 -76.0772 -20.1781 -37.1160 66.4126 -0.0000 0.0000 4.9420 -21.8183 20.4124 15.1476 0.0000 -0.0000
 -3.8440 32.6598 -6.3468 18.0528 -60.6800 -7.0453 6.9771 2.9740 7.5412 -7.2325 -14.7393 20.4933 -4.3171 6.1949 27.6393 -58.5639 -7.1433 -90.2893 -122.3849 -0.0000 -22.3478 -2.2613 20.1775 6.5307 33.1476 -0.0000 26.2537 -18.8972 5.3113 -7.9388 -41.6141 49.2619 118.9320 67.2350 0.0000 15.2941 -5.9724 -11.6445 -27.3986 32.8623 0.0000 -24.3270 -22.1097 12.0072 13.7569 20.6385 -0.0000 -0.0000 -27.9825 35.6322 9.6961 7.3790 -0.0000 0.0000 -76.1060 -20.3890 -37.1310 66.7335 0.0000 -0.0000 5.3758 -21.1813 20.6942 15.0700 -0.0000 0.0000
 -3.8306 32.6582 -6.3479 18.2812 -60.4646 -6.6834 6.9659 2.8226 7.4557 -7.3649 -14.7181 20.3769 -4.4075 6.1064 27.7568 -58.6340 -7.1059 -90.5700 -121.9987 -0.0000 -22.1121 -2.2826 20.1103 6.6127 33.1476 -0.0000 26.2537 -18.8585 5.2771 -7.9956 -41.4668 48.9697 118.7194 67.1434 0.0000 15.4420 -6.0650 -11.6973 -27.6580 32.8623 0.0000 -24.3270 -22.1086 12.0160 13.5196 20.4148 -0.0000 -0.0000 -27.8237 35.4595 9.6168 7.2100 -0.0000 -0.0000 -76.0790 -20.5741 -37.1459 66.9781 0.0000 0.0000 5.7609 -20.5327 20.9952 15.2199 0.0000 -0.0000
 -3.8105 32.6576 -6.3519 18.5352 -60.2579 -6.3338 6.9275 2.8095 7.4207 -7.4788 -14.7781 20.2374 -4.5445 5.7979 27.8908 -58.5630 -6.9995 -90.8012 -121.6970 -0.0000 -21.8173 -2.3040 20.1024 6.6768 33.1476 -0.0000 26.2537 -18.9312 5.1721 -8.0815 -41.1864 48.7041 118.4381 67.0584 0.0000 15.4172 -5.9756 -11.5703 -27.5590 32.8623 0.0000 -24.3270 -22.1441 11.9692 13.3128 20.2230 0.0000 0.0000 -27.6728 35.3355 9.5423 6.9008 -0.0000 -0.0000 -76.0145 -20.7826 -37.1131 67.1310 0.0000 -0.0000 6.2252 -19.8796 21.2642 15.3718 0.0000 -0.0000
 -3.7930 32.6566 -6.3554 18.7890 -60.0820 -5.9627 6.8919 2.7323 7.3699 -7.5843 -14.7272 20.0934 -4.6357 5.6461 27.9697 -58.5568 -6.9959 -90.9493 -121.4044 -0.0000 -21.6814 -2.3457 19.9491 6.8461 33.1476 -0.0000 26.2537 -19.0419 5.1535 -8.1341 -40.9742 48.5077 118.2393 66.9714 0.0000 15.5330 -6.1028 -11.7130 -27.7744 32.8623 0.0000 -24.3270 -22.1888 11.9777 13.0955 20.0419 -0.0000 0.0000 -27.5483 35.2021 9.5276 6.4793 0.0000 0.0000 -75.9022 -20.9357 -37.0293 67.2589 -0.0000 0.0000 6.6644 -19.3222 21.6443 15.4961 -0.0000 0.0000
 -3.7741 32.6538 -6.3573 19.0467 -59.9376 -5.5602 6.8294 2.7159 7.3096 -7.6532 -14.6917 19.8909 -4.7291 5.3652 28.0706 -58.4316 -6.8393 -91.1323 -121.2440 -0.0000 -21.3601 -2.3624 19.8183 6.9376 33.1476 -0.0000 26.2537 -19.0453 5.1319 -8.2342 -40.8746 48.3086 118.0796 66.8480 0.0000 15.5977 -6.1034 -11.6569 -27.8887 32.8623 0.0000 -24.3270 -22.2057 11.9624 12.8423 19.8415 -0.0000 -0.0000 -27.4316 35.1079 9.5696 6.0370 0.0000 -0.0000 -75.7704 -21.0460 -36.9177 67.3437 -0.0000 -0.0000 7.1355 -18.8380 22.0610 15.3452 0.0000 -0.0000
 -3.7551 32.6504 -6.3547 19.2273 -59.8056 -5.2047 6.8331 2.6817 7.2562 -7.8244 -14.5907 19.6030 -4.7857 5.1470 28.0758 -58.3317 -6.7193 -91.2126 -121.2266 -0.0000 -21.1551 -2.4324 19.9059 7.1115 33.1476 -0.0000 26.2537 -19.1538 5.1243 -8.3509 -40.7952 48.1674 118.0268 66.7097 0.0000 15.6963 -6.2379 -11.6813 -28.3628 32.8623 0.0000 -24.3270 -22.1656 11.9468 12.5609 19.6317 0.0000 -0.0000 -27.3234 35.0638 9.5861 5.6895 0.0000 -0.0000 -75.6013 -21.1375 -36.8148 67.3965 0.0000 0.0000 7.6644 -18.4454 22.3803 15.1819 -0.0000 -0.0000
 -3.7352 32.6481 -6.3524 19.4045 -59.7062 -4.8690 6.8470 2.6222 7.2338 -7.9965 -14.4235 19.3069 -4.8334 5.0069 28.0620 -58.2226 -6.5739 -91.2870 -121.2258 -0.0000 -20.8233 -2.3895 19.7926 7.0254 33.1476 -0.0000 26.2537 -19.2453 5.1483 -8.4657 -40.8601 48.1325 118.0441 66.5416 0.0000 15.8060 -6.3404 -11.6997 -28.7207 32.8623 0.0000 -24.3270 -22.1423 11.9631 12.3120 19.4319 -0.0000 0.0000 -27.1994 35.0162 9.5986 5.4018 0.0000 0.0000 -75.3691 -21.2084 -36.6449 67.3988 -0.0000 0.0000 8.2636 -18.1204 22.9375 14.8480 -0.0000 0.0000
 -3.7169 32.6454 -6.3481 19.5180 -59.6471 -4.5792 6.9084 2.5803 7.1926 -8.1935 -14.1827 19.0660 -4.9274 4.8815 28.0435 -58.0550 -6.3511 -91.3549 -121.3317 -0.0000 -20.9581 -2.3144 19.8930 6.7736 33.1476 -0.0000 26.2537 -19.3364 5.1592 -8.5851 -40.9699 48.1388 118.0968 66.4305 0.0000 15.8458 -6.3856 -11.7330 -28.8258 32.8623 0.0000 -24.3270 -22.0661 11.9863 12.0628 19.2222 0.0000 -0.0000 -27.0910 35.0236 9.5686 5.3197 -0.0000 -0.0000 -75.0961 -21.2523 -36.4365 67.3961 0.0000 -0.0000 8.8518 -17.8959 23.1867 14.6297 0.0000 -0.0000
 -3.6951 32.6401 -6.3430 19.6917 -59.6063 -4.2194 6.9480 2.5257 7.1567 -8.4491 -13.9570 18.7388 -4.8344 4.8625 28.0247 -58.0322 -6.1493 -91.4044 -121.5344 -0.0000 -21.1507 -2.3993 19.6741 7.0942 33.1476 -0.0000 26.2537 -19.3610 5.1832 -8.7328 -41.2059 48.1636 118.2469 66.3197 0.0000 16.0755 -6.5507 -11.6742 -29.5750 32.8623 0.0000 -24.3270 -22.0201 11.9819 11.7905 19.0286 -0.0000 -0.0000 -26.9803 35.0841 9.5270 5.2210 -0.0000 0.0000 -74.8540 -21.2617 -36.2201 67.3592 -0.0000 0.0000 9.4739 -17.8125 23.3685 14.6926 0.0000 -0.0000
